<svg id="visual" viewBox="0 0 900 600" width="900" height="600" xmlns="http://www.w3.org/2000/svg" xmlns:xlink="http://www.w3.org/1999/xlink" version="1.1"><rect x="0" y="0" width="900" height="600" fill="#FFFFFF"></rect><defs><linearGradient id="grad1_0" x1="33.3%" y1="0%" x2="100%" y2="100%"><stop offset="20%" stop-color="#ffffff" stop-opacity="1"></stop><stop offset="80%" stop-color="#ffffff" stop-opacity="1"></stop></linearGradient></defs><defs><linearGradient id="grad2_0" x1="0%" y1="0%" x2="66.7%" y2="100%"><stop offset="20%" stop-color="#ffffff" stop-opacity="1"></stop><stop offset="80%" stop-color="#ffffff" stop-opacity="1"></stop></linearGradient></defs><g transform="translate(900, 0)"><path d="M0 270.4C-36.7 268.1 -73.3 265.7 -103.5 249.8C-133.7 233.9 -157.3 204.5 -176.8 176.8C-196.2 149 -211.4 122.9 -226.4 93.8C-241.3 64.6 -255.8 32.3 -270.4 0L0 0Z" fill="#dff2e7"></path></g><g transform="translate(0, 600)"><path d="M0 -270.4C35 -266.7 70 -262.9 103.5 -249.8C137 -236.8 169 -214.4 185.3 -185.3C201.5 -156.2 201.9 -120.4 213.4 -88.4C225 -56.4 247.7 -28.2 270.4 0L0 0Z" fill="#dff2e7"></path></g></svg>